<?xml version="1.0" encoding="iso-8859-1"?>
<!-- Generator: Adobe Illustrator 19.0.0, SVG Export Plug-In . SVG Version: 6.00 Build 0)  -->
<svg version="1.1" id="Capa_1" xmlns="http://www.w3.org/2000/svg" xmlns:xlink="http://www.w3.org/1999/xlink" x="0px" y="0px"
	 viewBox="0 0 57.6 57.6" style="enable-background:new 0 0 57.6 57.6;" xml:space="preserve">
<g>
	<circle cx="28.599" cy="31.792" r="3"/>
	<path d="M57.323,50.804L30.354,4.779c-0.362-0.619-1.006-0.987-1.723-0.987c-0.002,0-0.004,0-0.006,0
		c-0.718,0.002-1.361,0.375-1.721,0.996L0.272,50.812c-0.362,0.625-0.363,1.372-0.002,1.997c0.36,0.625,1.007,0.999,1.729,0.999
		H55.6c0.725,0,1.373-0.375,1.732-1.004C57.693,52.176,57.689,51.428,57.323,50.804z M28.599,26.792c2.757,0,5,2.243,5,5
		s-2.243,5-5,5s-5-2.243-5-5S25.842,26.792,28.599,26.792z M22.413,24.53l6.241-10.785l6.365,10.864
		C30.896,23.515,26.547,23.486,22.413,24.53z M28.569,39.797c4.574,0,9.144-1.251,13.16-3.738l6.885,11.75H8.943l6.71-11.597
		C19.61,38.599,24.089,39.797,28.569,39.797z M32.748,37.417c1.725-1.276,2.851-3.319,2.851-5.625c0-2.326-1.145-4.384-2.895-5.658
		c4.132,0.749,8.098,2.63,11.39,5.645C40.813,34.784,36.864,36.662,32.748,37.417z M28.629,5.79l12.512,21.352
		c-1.051-0.611-2.136-1.14-3.248-1.585L28.642,9.77l-9.06,15.659c-1.083,0.416-2.142,0.91-3.17,1.481L28.629,5.79z M24.507,26.124
		c-1.758,1.273-2.908,3.336-2.908,5.667c0,2.313,1.132,4.361,2.867,5.636c-4.143-0.745-8.12-2.627-11.42-5.649
		C16.356,28.747,20.349,26.865,24.507,26.124z M2.003,51.815l10.39-17.955c0.517,0.44,1.046,0.857,1.589,1.248l-8.507,14.7h46.63
		l-8.713-14.867c0.539-0.397,1.062-0.824,1.575-1.271L55.6,51.809L2.003,51.815z"/>
</g>
<g>
</g>
<g>
</g>
<g>
</g>
<g>
</g>
<g>
</g>
<g>
</g>
<g>
</g>
<g>
</g>
<g>
</g>
<g>
</g>
<g>
</g>
<g>
</g>
<g>
</g>
<g>
</g>
<g>
</g>
</svg>
