<?xml version="1.0"?>
<svg xmlns="http://www.w3.org/2000/svg" viewBox="0 0 64 64" width="512" height="512"><g id="outline"><path d="M19,33h2.115A4.851,4.851,0,0,0,21,34a5,5,0,0,0,10,0,4.851,4.851,0,0,0-.115-1h2.23A4.851,4.851,0,0,0,33,34a5,5,0,0,0,10,0,4.851,4.851,0,0,0-.115-1H45V27H19Zm7,4a3,3,0,0,1-3-3,2.853,2.853,0,0,1,.183-1h5.634A2.853,2.853,0,0,1,29,34,3,3,0,0,1,26,37Zm12,0a3,3,0,0,1-3-3,2.853,2.853,0,0,1,.183-1h5.634A2.853,2.853,0,0,1,41,34,3,3,0,0,1,38,37ZM21,29H43v2H21Z"/><path d="M30.707,40.293a1,1,0,0,0-1.414,0l-3,3a1,1,0,0,0,.192,1.564l5,3a1,1,0,0,0,1.03,0l5-3a1,1,0,0,0,.192-1.564l-3-3a1,1,0,0,0-1.414,1.414L35.388,43.8,32,45.834,28.612,43.8l2.1-2.094A1,1,0,0,0,30.707,40.293Z"/><path d="M42.937,44a1,1,0,0,0-.832.551A17.341,17.341,0,0,1,37.678,50H26.211a17.416,17.416,0,0,1-4.428-5.448A1,1,0,0,0,20.95,44a.991.991,0,0,0-.893.443A6.572,6.572,0,0,0,20,51.464V55a1,1,0,0,0,1,1H43a1,1,0,0,0,1-1V51.271a6.518,6.518,0,0,0-.168-6.826A.971.971,0,0,0,42.937,44ZM21.052,47.246A19.975,19.975,0,0,0,23.2,50H21.482A4.87,4.87,0,0,1,21.052,47.246ZM42,54H22V52H42Zm.407-4H40.686a20.167,20.167,0,0,0,2.153-2.756A4.846,4.846,0,0,1,42.407,50Z"/><path d="M54.643,38.064c3.1-4.4.415-12.076.3-12.4a1,1,0,0,0-1.773-.219A6.223,6.223,0,0,1,49,27.889V21a9.328,9.328,0,0,0-.139-1.491C49.205,18.983,53,12.937,53,3a1,1,0,0,0-1.813-.581A29.749,29.749,0,0,1,37.822,12H26.178A29.862,29.862,0,0,1,12.813,2.418,1,1,0,0,0,11,3c0,9.94,3.8,15.986,4.139,16.51A9.326,9.326,0,0,0,15,21v6.894a6.186,6.186,0,0,1-4.168-2.449,1,1,0,0,0-1.773.219c-.117.324-2.8,8,.3,12.4A7.2,7.2,0,0,0,15,40.958V53a9.01,9.01,0,0,0,9,9H40a9.01,9.01,0,0,0,9-9V40.958A7.2,7.2,0,0,0,54.643,38.064ZM15,31.343A5.391,5.391,0,0,0,13,31a1,1,0,0,0,0,2c1.826,0,1.987.844,2,1.024v4.932a5.162,5.162,0,0,1-4.006-2.041C9.245,34.437,9.9,30.3,10.463,28A9.032,9.032,0,0,0,15,29.918ZM36.405,14c1.049,2.016,2.781,6.281,1.923,9H35.3a13.733,13.733,0,0,0-1.539-9ZM27.6,14H30.24A13.733,13.733,0,0,0,28.7,23H25.673C24.818,20.286,26.548,16.018,27.6,14ZM13.113,5.845A31.663,31.663,0,0,0,24.7,13.6a7.681,7.681,0,0,1-8.1,4.459A29.941,29.941,0,0,1,13.113,5.845ZM47,53a7.008,7.008,0,0,1-7,7H24a7.008,7.008,0,0,1-7-7V21a7.216,7.216,0,0,1,.064-.917c.154.006.311.015.461.015a9.425,9.425,0,0,0,6.458-2.347c-.6,2.216-.861,4.73.122,6.7A1,1,0,0,0,25,25h5a1,1,0,0,0,.931-1.367c-.067-.17-1.438-3.878,1.069-8.66,2.507,4.782,1.136,8.49,1.071,8.655A1,1,0,0,0,34,25h5a1,1,0,0,0,.9-.553c.983-1.966.725-4.48.122-6.695A9.43,9.43,0,0,0,46.475,20.1c.149,0,.307-.009.461-.015A7.216,7.216,0,0,1,47,21ZM39.309,13.6A31.669,31.669,0,0,0,50.886,5.846,30.141,30.141,0,0,1,47.4,18.058,7.712,7.712,0,0,1,39.309,13.6Zm13.7,23.318A5.162,5.162,0,0,1,49,38.956V34.022c.014-.182.175-1.022,2-1.022a1,1,0,0,0,0-2,5.391,5.391,0,0,0-2,.343V29.918A9.032,9.032,0,0,0,53.537,28C54.1,30.3,54.755,34.437,53.006,36.915Z"/></g></svg>
