<svg height="480pt" viewBox="0 0 480.44566 480" width="480pt" xmlns="http://www.w3.org/2000/svg"><path d="m165.183594 312.777344c-.96875.40625-1.859375.972656-2.640625 1.679687-1.457031 1.53125-2.289063 3.5625-2.320313 5.679688.015625 1.042969.230469 2.078125.640625 3.039062.730469 2.011719 2.3125 3.59375 4.320313 4.320313.960937.410156 1.996094.628906 3.039062.640625 2.121094-.03125 4.148438-.859375 5.683594-2.320313.703125-.777344 1.273438-1.671875 1.679688-2.640625.410156-.960937.625-1.996093.636718-3.039062-.027344-2.117188-.859375-4.148438-2.316406-5.679688-2.339844-2.199219-5.734375-2.855469-8.722656-1.679687zm0 0"/><path d="m167.585938 349.097656c-.160157-.492187-.402344-.953125-.722657-1.363281-.320312-.476563-.640625-.878906-.957031-1.277344-.78125-.707031-1.671875-1.273437-2.640625-1.679687-1.949219-.800782-4.132813-.800782-6.082031 0-.96875.40625-1.859375.972656-2.640625 1.679687-3.09375 3.152344-3.09375 8.203125 0 11.359375.78125.707032 1.671875 1.273438 2.640625 1.679688 1.9375.855468 4.144531.855468 6.082031 0 .96875-.40625 1.859375-.972656 2.640625-1.679688 1.457031-1.535156 2.289062-3.5625 2.316406-5.679687-.011718-.539063-.066406-1.070313-.15625-1.601563-.089844-.5-.25-.984375-.480468-1.4375zm0 0"/><path d="m186.542969 362.457031c-.703125.777344-1.273438 1.667969-1.679688 2.640625-.851562 1.933594-.851562 4.140625 0 6.078125.40625.96875.976563 1.863281 1.679688 2.640625 1.535156 1.460938 3.5625 2.289063 5.679687 2.320313 2.121094-.015625 4.15625-.847657 5.683594-2.320313.703125-.777344 1.273438-1.671875 1.679688-2.640625.851562-1.9375.851562-4.144531 0-6.078125-.40625-.972656-.976563-1.863281-1.679688-2.640625-3.210938-2.960937-8.152344-2.960937-11.363281 0zm0 0"/><path d="m306.542969 325.816406c.78125.707032 1.671875 1.273438 2.640625 1.679688.960937.410156 1.996094.628906 3.039062.640625 2.121094-.03125 4.148438-.859375 5.683594-2.320313.703125-.777344 1.273438-1.671875 1.679688-2.640625.410156-.960937.625-1.996093.636718-3.039062-.027344-2.117188-.859375-4.148438-2.316406-5.679688-2.339844-2.199219-5.734375-2.855469-8.722656-1.679687-.96875.40625-1.859375.972656-2.640625 1.679687-1.457031 1.53125-2.289063 3.5625-2.320313 5.679688.015625 1.042969.230469 2.078125.640625 3.039062.40625.96875.976563 1.863281 1.679688 2.640625zm0 0"/><path d="m320.863281 347.175781c.40625.96875.976563 1.863281 1.679688 2.640625 3.15625 3.09375 8.207031 3.09375 11.363281 0 .703125-.777344 1.273438-1.671875 1.679688-2.640625.851562-1.9375.851562-4.144531 0-6.078125-.40625-.972656-.976563-1.863281-1.679688-2.640625-3.210938-2.960937-8.152344-2.960937-11.363281 0-.703125.777344-1.273438 1.667969-1.679688 2.640625-.851562 1.933594-.851562 4.140625 0 6.078125zm0 0"/><path d="m288.222656 368.136719c.015625 1.042969.230469 2.078125.640625 3.039062.40625.96875.976563 1.863281 1.679688 2.640625 1.535156 1.460938 3.5625 2.289063 5.679687 2.320313 2.121094-.015625 4.15625-.847657 5.683594-2.320313.703125-.777344 1.273438-1.671875 1.679688-2.640625.851562-1.9375.851562-4.144531 0-6.078125-.40625-.972656-.976563-1.863281-1.679688-2.640625-3.210938-2.960937-8.152344-2.960937-11.363281 0-.703125.777344-1.273438 1.667969-1.679688 2.640625-.410156.960938-.625 1.992188-.640625 3.039063zm0 0"/><path d="m179.265625 152.777344c-1.949219-.800782-4.132813-.800782-6.082031 0-2.007813.726562-3.589844 2.308594-4.320313 4.320312-.410156.960938-.625 1.992188-.640625 3.039063.015625.535156.070313 1.070312.160156 1.597656.089844.503906.25.988281.480469 1.441406.175781.511719.417969.996094.722657 1.441407l.957031 1.199218c3.15625 3.09375 8.207031 3.09375 11.363281 0 .34375-.378906.664062-.78125.957031-1.199218.304688-.445313.546875-.929688.722657-1.441407.230468-.453125.390624-.9375.480468-1.441406.089844-.527344.144532-1.0625.15625-1.597656-.027344-2.117188-.859375-4.148438-2.316406-5.679688-.753906-.742187-1.652344-1.3125-2.640625-1.679687zm0 0"/><path d="m189.878906 122.480469c-7.78125-7.089844-16.570312-12.988281-26.078125-17.503907-6.613281-3.160156-11.027343-9.613281-11.578125-16.921874-.019531-4.417969-3.621094-7.980469-8.039062-7.957032-4.417969.019532-7.980469 3.621094-7.960938 8.039063.570313 13.359375 8.410156 25.332031 20.425782 31.199219 7.953124 3.777343 15.332031 8.660156 21.921874 14.496093 3.136719 3.03125 8.125 2.988281 11.210938-.097656s3.132812-8.074219.097656-11.214844zm0 0"/><path d="m152.222656 176.136719h-16c-4.417968 0-8 3.582031-8 8s3.582032 8 8 8h16c4.421875 0 8-3.582031 8-8s-3.578125-8-8-8zm0 0"/><path d="m309.90625 154.457031c-.78125-.707031-1.671875-1.273437-2.640625-1.679687-2.988281-1.175782-6.382813-.519532-8.722656 1.679687-1.457031 1.53125-2.289063 3.5625-2.320313 5.679688.015625.535156.070313 1.070312.160156 1.597656.089844.503906.25.988281.480469 1.441406.175781.511719.417969.996094.722657 1.441407l.957031 1.199218c3.15625 3.09375 8.207031 3.09375 11.363281 0 .34375-.378906.664062-.78125.957031-1.199218.304688-.445313.546875-.929688.722657-1.441407.230468-.453125.390624-.9375.480468-1.441406.089844-.527344.144532-1.0625.15625-1.597656-.011718-1.046875-.226562-2.078125-.636718-3.039063-.367188-.992187-.941407-1.890625-1.679688-2.640625zm0 0"/><path d="m301.863281 133.816406c6.59375-5.839844 13.976563-10.714844 21.9375-14.480468 12.015625-5.867188 19.855469-17.839844 20.421875-31.199219 0-4.417969-3.578125-8-8-8-4.417968 0-8 3.582031-8 8-.519531 7.296875-4.949218 13.738281-11.574218 16.839843-9.507813 4.515626-18.296876 10.414063-26.078126 17.503907-3.132812 3.117187-3.140624 8.183593-.023437 11.316406 3.121094 3.128906 8.1875 3.136719 11.316406.019531zm0 0"/><path d="m344.222656 176.136719h-16c-4.417968 0-8 3.582031-8 8s3.582032 8 8 8h16c4.421875 0 8-3.582031 8-8s-3.578125-8-8-8zm0 0"/><path d="m284.34375 65.28125c-43.625-26.175781-86.398438-1.097656-88.238281 0-3.730469 2.292969-4.921875 7.164062-2.671875 10.921875s7.101562 5.007813 10.886718 2.804687c22.300782-12.484374 49.484376-12.484374 71.785157 0 2.449219 1.535157 5.539062 1.625 8.078125.238282 2.539062-1.386719 4.132812-4.035156 4.164062-6.929688.035156-2.890625-1.496094-5.574218-4.003906-7.019531zm0 0"/><path d="m284.34375 89.28125c-43.625-26.175781-86.398438-1.089844-88.238281 0-3.730469 2.292969-4.921875 7.164062-2.671875 10.921875s7.101562 5.007813 10.886718 2.804687c22.300782-12.484374 49.484376-12.484374 71.785157 0 2.449219 1.535157 5.539062 1.625 8.078125.238282 2.539062-1.386719 4.132812-4.035156 4.164062-6.929688.035156-2.890625-1.496094-5.574218-4.003906-7.019531zm0 0"/><path d="m480.097656 52.800781c-.429687-19.085937-10.417968-36.675781-26.585937-46.824219-21.902344-11.199218-42.472657-6.335937-73.335938 17.367188-13.171875 10.125-28.214843 17.550781-44.261719 21.847656-29.933593-14.054687-62.625-21.246094-95.691406-21.054687-33.070312-.191407-65.765625 7-95.703125 21.054687-16.039062-4.3125-31.074219-11.738281-44.246093-21.855468-30.871094-23.703126-51.425782-28.574219-73.335938-17.359376-16.167969 10.148438-26.15625 27.738282-26.585938 46.824219-2.015624 16.019531 4.699219 31.890625 17.601563 41.597657 11.199219 7.65625 30.136719 11.578124 56.222656 11.738281-11.625 18.597656-17.84375 40.066406-17.953125 62 .023438 4.191406.273438 8.378906.753906 12.542969-15.242187 25.863281-28.671874 52.753906-40.183593 80.480468-1.097657 2.734375-.605469 5.847656 1.285156 8.105469 1.886719 2.261719 4.863281 3.300781 7.746094 2.710937l22.152343-4.425781c-8.433593 13.792969-20.886718 33.921875-30.398437 48.144531-1.777344 2.660157-1.796875 6.117188-.058594 8.796876 1.738281 2.679687 4.90625 4.070312 8.058594 3.53125 7.527344-1.246094 20.253906-3.566407 32.246094-6.664063-13.03125 18.742187-24.089844 38.785156-33 59.800781-1.054688 2.628906-.636719 5.621094 1.09375 7.863282 1.730469 2.242187 4.519531 3.402343 7.332031 3.046874l44.796875-5.597656c-10.632813 13.324219-20.308594 27.390625-28.949219 42.085938-1.191406 2.351562-1.148437 5.140625.113282 7.457031 1.265624 2.3125 3.589843 3.855469 6.214843 4.121094 1.085938.113281 9.871094.941406 22.238281.941406 22.9375 0 58.121094-2.925781 79.257813-18.671875 14.253906 33.746094 46.703125 56.230469 83.300781 57.730469 36.664063-1.347657 69.199219-23.890625 83.339844-57.746094 21.132812 15.730469 56.292969 18.648437 79.199219 18.648437 12.359375 0 21.152343-.800781 22.238281-.941406 2.625-.25 4.957031-1.777344 6.238281-4.085937 1.277344-2.304688 1.339844-5.09375.164063-7.453125-8.644532-14.695313-18.316406-28.761719-28.953125-42.085938l44.800781 5.597656c2.808594.355469 5.597656-.804687 7.328125-3.046874 1.730469-2.242188 2.148437-5.234376 1.09375-7.863282-8.925781-21.019531-20-41.058594-33.046875-59.800781 12 3.097656 24.71875 5.417969 32.246094 6.664063 3.152344.539062 6.320312-.851563 8.058594-3.53125 1.738281-2.679688 1.71875-6.136719-.058594-8.796876-9.488282-14.222656-21.941406-34.351562-30.398438-48.144531l22.152344 4.425781c2.878906.578126 5.84375-.46875 7.722656-2.726562s2.367188-5.363281 1.277344-8.089844c-11.511719-27.726562-24.941406-54.617187-40.183594-80.480468.488282-4.164063.75-8.351563.78125-12.542969-.105468-21.941407-6.328125-43.417969-17.964844-62.015625 26.078126-.160156 44.992188-4.082032 56.222657-11.753906 12.902343-9.695313 19.621093-25.554688 17.617187-41.566407zm-453.105468 28.359375c-7.964844-6.722656-11.984376-17.019531-10.671876-27.359375.230469-13.421875 6.890626-25.914062 17.902344-33.585937 11.304688-5.773438 24.105469-8.878906 56.3125 15.816406 10.644532 8.175781 22.390625 14.800781 34.890625 19.6875-4.007812 2.511719-7.875 5.152344-11.601562 7.921875-12.957031-.09375-25.808594-2.34375-38.023438-6.664063-3.953125-1.976562-8.761719-.371093-10.734375 3.582032-1.976562 3.957031-.371094 8.761718 3.582032 10.738281 8.90625 3.78125 18.359374 6.109375 28 6.894531-3.816407 3.726563-7.425782 7.65625-10.824219 11.769532-28.175781 1-49.085938-2.152344-58.832031-8.800782zm42.871093 343.777344c11.800781-17.777344 32.351563-43.503906 32.609375-43.824219 2.035156-2.542969 2.324219-6.066406.734375-8.90625-1.589843-2.839843-4.742187-4.433593-7.972656-4.03125l-49.992187 6.25c11.574218-23.066406 25.386718-44.941406 41.230468-65.3125 2.570313-3.253906 2.175782-7.945312-.902344-10.722656-3.125-2.824219-7.886718-2.804687-10.984374.050781-10.589844 5.03125-21.851563 8.496094-33.433594 10.285156 14.3125-22.488281 29.734375-48.175781 29.929687-48.496093 1.617188-2.71875 1.484375-6.136719-.347656-8.71875-1.828125-2.582031-5.007813-3.84375-8.109375-3.214844l-25.191406 5.03125c8.390625-18.960937 17.824218-36.921875 24.558594-49.160156 11.140624 31.511719 32.898437 58.160156 61.542968 75.375-12.878906 30.632812-13.78125 58.808593-2.65625 83.839843 6.652344 16.367188 18.207032 30.269532 33.082032 39.800782-.046876.066406-.121094.089844-.167969.152344-14.570313 19.472656-57.863281 22.398437-83.929688 21.601562zm170.359375 39.199219c-32.457031-1.5625-60.558594-23.058594-70.558594-53.976563 9.914063 2.972656 20.414063 3.441406 30.550782 1.359375 2.996094-.664062 5.9375-1.542969 8.800781-2.632812 2.34375 13.914062 10.601563 31.25 31.207031 31.25 20.800782 0 29.011719-17.648438 31.28125-31.617188 3.152344 1.265625 6.402344 2.269531 9.71875 3 4.082032.855469 8.242188 1.285157 12.410156 1.28125 5.769532-.011719 11.507813-.804687 17.0625-2.351562-9.960937 30.863281-38.070312 52.277343-70.472656 53.6875zm8.617188-113.855469c-.808594-3.570312-3.964844-6.113281-7.625-6.144531-.167969 0-.328125 0-.496094 0-3.949219-.121094-7.40625 2.632812-8.167969 6.511719-12.261719-4.800782-18.949219-20.304688-22.09375-30.527344h59.480469c-3.105469 9.957031-9.554688 24.957031-21.097656 30.160156zm-8.121094 31.375c3.90625 7.054688 9.195312 13.25 15.554688 18.207031 0 .089844-.050782.160157-.050782.25 0 .984375-.335937 24-16 24-14.566406 0-15.871094-19.914062-16-23.496093 6.78125-5.082032 12.402344-11.546876 16.496094-18.960938zm202.265625-128.328125-25.160156-5.03125c-3.105469-.621094-6.28125.652344-8.101563 3.238281-1.824218 2.585938-1.949218 6.007813-.320312 8.722656.191406.316407 15.613281 26.007813 29.925781 48.503907-11.578125-1.792969-22.832031-5.257813-33.414063-10.28125-3.003906-3.011719-7.835937-3.148438-11-.3125-3.167968 2.835937-3.566406 7.652343-.90625 10.96875 15.847657 20.371093 29.65625 42.246093 41.234376 65.3125l-49.992188-6.25c-3.230469-.402344-6.386719 1.191406-7.976562 4.03125-1.589844 2.839843-1.300782 6.363281.734374 8.90625.257813.320312 20.800782 26.054687 32.617188 43.832031-25.894531.800781-68.992188-2.105469-83.785156-21.425781 15.1875-9.5 26.988281-23.554688 33.722656-40.160157 11.199219-25.175781 10.214844-53.527343-2.875-84.351562 28.261719-17.230469 49.710938-43.683594 60.730469-74.894531 6.734375 12.253906 16.207031 30.214843 24.566406 49.191406zm-92.3125 11.136719c-12.738281-23.085938-28.945313-44.078125-48.046875-62.25-3.269531-2.972656-8.332031-2.730469-11.304688.539062-2.972656 3.269532-2.734374 8.328125.535157 11.300782 19.703125 18.832031 36.070312 40.871093 48.402343 65.175781v.121093c13.742188 28.953126 15.640626 55.039063 5.597657 77.535157-15.566407 35.042969-41.910157 43.097656-61.359375 38.984375-15.503906-3.210938-28.105469-14.472656-33.03125-29.519532 28.855468-8.992187 36.273437-50.910156 36.601562-52.894531.386719-2.3125-.261718-4.675781-1.769531-6.472656-1.507813-1.792969-3.730469-2.832031-6.074219-2.847656h-80c-2.351562 0-4.582031 1.035156-6.101562 2.832031-1.519532 1.792969-2.171875 4.167969-1.785156 6.488281.335937 2.007813 7.914062 44.757813 37.519531 53.144531-4.984375 14.929688-17.542969 26.082032-32.957031 29.269532-19.441407 4.113281-45.792969-3.941406-61.363282-38.984375-9.941406-22.398438-8.117187-48.300781 5.433594-77.085938v-.128906c12.347656-24.476563 28.785156-46.664063 48.609375-65.601563 3.269531-2.972656 3.507813-8.03125.535156-11.300781-2.972656-3.269531-8.035156-3.511719-11.304687-.539062-19.234375 18.289062-35.527344 39.441406-48.304688 62.707031-37.152344-24.386719-58.28125-59.28125-58.28125-96.800781 0-70.578125 75.363282-128 168-128 92.640625 0 168 57.421875 168 128 0 37.214843-20.863281 71.933593-57.550781 96.328125zm102.785156-183.304688c-9.761719 6.664063-30.664062 9.742188-58.847656 8.800782-3.40625-4.105469-7.027344-8.03125-10.847656-11.753907 9.65625-.78125 19.121093-3.109375 28.039062-6.894531 3.953125-1.976562 5.558594-6.78125 3.582031-10.738281-1.972656-3.953125-6.78125-5.558594-10.734374-3.582031-12.214844 4.324218-25.066407 6.574218-38.023438 6.664062-3.734375-2.761719-7.59375-5.398438-11.578125-7.902344 12.492187-4.898437 24.226563-11.535156 34.867187-19.707031 32.214844-24.726563 45.015626-21.597656 56.308594-15.816406 11.019532 7.675781 17.683594 20.175781 17.90625 33.601562 1.300782 10.328125-2.714844 20.613281-10.671875 27.328125zm0 0"/></svg>